<?xml version="1.0" encoding="UTF-8"?>
<svg width="241px" height="240px" viewBox="0 0 241 240" version="1.1" xmlns="http://www.w3.org/2000/svg" xmlns:xlink="http://www.w3.org/1999/xlink">
    <title>logo</title>
    <g id="页面-1" stroke="none" stroke-width="1" fill="none" fill-rule="evenodd">
        <g id="logo" transform="translate(0.189981, 0.000000)">
            <polygon id="Fill-1" fill="#0081CC" points="0 240 240 240 240 0 0 0"></polygon>
            <polygon id="Fill-2" fill="#FEFEFE" points="207.273177 163.632794 207.273177 127.272957 181.822281 127.272957 181.822281 207.271857 207.273177 207.271857 207.273177 170.912021 199.99725 170.912021 199.99725 185.457275 189.091609 185.457275 189.091609 149.090839 199.99725 149.090839 199.99725 163.632794"></polygon>
            <polygon id="Fill-3" fill="#FEFEFE" points="141.822831 207.270867 174.546354 207.270867 174.546354 185.459585 149.088859 185.459585 149.088859 149.089849 174.546354 149.089849 174.546354 127.275267 149.088859 127.275267 149.088859 54.5456945 174.546354 54.5456945 174.546354 32.7245129 141.822831 32.7245129"></polygon>
            <polygon id="Fill-4" fill="#FEFEFE" points="105.454745 207.270867 134.548554 207.270867 134.548554 127.275267 127.272627 127.275267 127.272627 185.459585 112.724073 185.459585 112.724073 54.5456945 127.272627 54.5456945 127.272627 94.5484443 134.548554 94.5484443 134.548554 32.7245129 105.454745 32.7245129"></polygon>
            <polygon id="Fill-5" fill="#FEFEFE" points="98.1577001 94.5477844 98.184098 32.723853 65.4539755 32.723853 65.4539755 149.089189 90.9114707 149.089189 90.9114707 185.458925 72.7299025 185.458925 72.7299025 170.913671 65.4539755 170.913671 65.4539755 207.270207 98.1577001 207.273507 98.184098 127.274607 72.7299025 127.274607 72.7299025 54.5450346 90.9114707 54.5450346 90.8817731 94.5477844"></polygon>
            <polygon id="Fill-6" fill="#FEFEFE" points="32.7251729 207.270867 58.1826681 207.270867 58.1826681 170.911031 50.8473458 170.911031 50.9166403 185.459585 40.0010999 185.459585 40.0010999 149.089849 50.9166403 149.089849 50.9166403 163.631804 58.1826681 163.631804 58.1826681 127.275267 32.7251729 127.275267"></polygon>
        </g>
    </g>
</svg>