<?xml version="1.0" encoding="utf-8"?>
<!-- Generator: Adobe Illustrator 24.2.3, SVG Export Plug-In . SVG Version: 6.00 Build 0)  -->
<svg version="1.1" id="图层_1" xmlns="http://www.w3.org/2000/svg" xmlns:xlink="http://www.w3.org/1999/xlink" x="0px" y="0px"
	 viewBox="0 0 1875 625" style="enable-background:new 0 0 1875 625;" xml:space="preserve">
<style type="text/css">
	.st0{fill:#0081CC;}
	.st1{fill:#FFFFFF;}
	.st2{fill-rule:evenodd;clip-rule:evenodd;fill:#0081CC;}
</style>
<g>
	<g>
		<polygon class="st0" points="28.5,137.23 379.05,137.23 379.05,487.77 28.5,487.77 28.5,137.23 		"/>
		<polygon class="st1" points="294.07,323.12 331.24,323.12 331.24,376.24 320.62,376.24 320.62,354.99 304.69,354.99 304.69,408.1 
			320.62,408.1 320.62,386.86 331.24,386.86 331.24,439.97 294.07,439.97 294.07,323.12 		"/>
		<polygon class="st1" points="235.64,185.03 283.44,185.03 283.44,216.9 246.26,216.9 246.26,323.12 283.44,323.12 283.44,354.99 
			246.26,354.99 246.26,408.1 283.44,408.1 283.44,439.97 235.64,439.97 235.64,185.03 		"/>
		<polygon class="st1" points="182.53,185.03 225.02,185.03 225.02,275.32 214.39,275.32 214.4,216.9 193.15,216.9 193.15,408.1 
			214.4,408.1 214.4,323.12 225.02,323.12 225.02,439.97 182.53,439.97 182.53,185.03 		"/>
		<polygon class="st1" points="124.1,185.03 171.9,185.03 171.87,275.32 161.24,275.32 161.28,216.9 134.73,216.9 134.73,323.12 
			171.9,323.12 171.87,439.98 124.1,439.97 124.1,386.86 134.73,386.86 134.73,408.1 161.28,408.1 161.28,354.99 124.1,354.99 
			124.1,185.03 		"/>
		<polygon class="st1" points="76.3,323.12 113.48,323.12 113.48,376.24 102.86,376.24 102.86,354.99 86.92,354.99 86.92,408.1 
			102.86,408.1 102.77,386.86 113.48,386.86 113.48,439.97 76.3,439.97 76.3,323.12 		"/>
	</g>
	<g>
		<g>
			<path class="st2" d="M1019.51,171.29c18.5-1.75,35.14,1.2,53.69-0.54c8.56-1.49,16.07,2.54,24.7,2.68
				c6.27,0.13,10.44,5.9,16.64,6.44c3.99-2.96,8.02-7.66,13.43-5.91c3.31,1.07,5.2,4.82,6.98,7.52c-1.38,4.69-0.3,11.27-2.15,15.57
				c-2.59,13.14-12.52,23.34-10.21,36.51c-0.7,13.41-3.39,24.82-1.61,38.66c-0.57,2.4-0.97,3.61,0,5.91
				c1.31,7.77-0.57,17.43,1.61,24.16c1.18,7.77,0.91,15.55,3.22,23.63c-1.11,3.2,1.84,6.15,1.62,9.66
				c2.64,4.41-0.31,9.24-1.62,13.43c-0.84,3.2-4.33,4.41-6.98,5.37c-17.22-6.33-38.7-5.39-56.92-8.05
				c-9.16-1.37-21.51,0.51-32.22-1.61c-2.04,2.39-4.72-0.02-6.98,0c-22.05,0.38-45.93,0.78-68.19,5.37
				c-6.34,0.38-10.09-2.84-13.96-6.98c-0.02-1.23,0.24-2.57-1.08-3.22c-2.44,2.26-4.05,5.22-4.83,9.13
				c-4.05,1.05-2.71,6.29-6.45,6.98c-4.19-2.31-4.45-7-4.83-11.28c-2.98-30.89,6.15-57.47,3.75-87.52
				c-0.42-8.74,1.46-20.95-3.75-28.99c-5.12-7.26-3.11-17.46-8.06-24.7c-2.03-7.66-0.55-16.65,0.54-23.62
				c13.41-5.51,26.96-12.09,42.96-9.66l0.54-0.54C979.34,175.05,1000.15,165.92,1019.51,171.29L1019.51,171.29z M1053.34,200.82
				c0.91,3.21-1.51,5.5-2.15,7.52c-4.86,3.35-11.18,0.39-16.65,0.54c-6.06,2.54-10.49-2.29-16.11-2.15
				c-0.16-4.31-7.28-3.37-5.37-8.05c6.95-3.77,15-1.89,23.09-1.61C1041.36,197.06,1047.94,198.8,1053.34,200.82L1053.34,200.82z
				 M1107.03,201.36c0.91,2.81,1.17,5.9,1.08,9.13c-1.38,3.35-4.87,3.48-7.52,4.83c-9.43-3.9-18.42-3.63-29-4.3
				c-1.77-3.5,0.64-7.8,2.15-11.28c1.31-2.69,3.45,1.06,4.83-1.61C1087.13,199.88,1097.33,200.82,1107.03,201.36L1107.03,201.36z
				 M994.8,207.27c-0.29,3.08-4.59,0.66-6.44,2.15c-15.33-2.02-26.61,5.76-41.89,3.76c-0.69-0.55-1.22-1.62-2.15-1.61
				c2.13-4.98,6.96-6.99,12.35-7.52c3.06-3.9,8.84-1.22,12.34-4.3C977.6,200.68,991.16,196.66,994.8,207.27L994.8,207.27z
				 M1080.18,234.12c-0.83,3.75-4.86,1.87-6.98,3.76c-8.35,1.06-17.62,11.67-25.24,3.22c-3.26-2.16-3.79-8.07-8.05-9.66
				c2.38-0.95,3.99-0.68,6.44,0C1058.54,231.55,1068.34,233.03,1080.18,234.12L1080.18,234.12z M981.38,240.56
				c-6.47,4.55-15.59,3.61-20.41,10.74c-3.65,1.19-7.4,2.13-10.74-0.54c-1.63-4.17,2.39-6.46,4.3-8.59
				c8.3-3.37,17.16-8.87,26.84-5.91V240.56L981.38,240.56z M1103.81,238.41c-3.12,6.7,1.71,14.62-2.15,20.94
				c1.97,4.95,0.64,10.05,1.07,15.03c-2.99,4.95,4.27,16.09-4.29,17.18c-5.94-7.27-12.12-16.4-20.41-22.56
				c-3.12-2.83-6.61-6.86-8.59-10.2c7.75-7.8,30.57-4.85,26.85-22.02C1098.41,236.52,1101.63,237.06,1103.81,238.41L1103.81,238.41z
				 M1024.88,242.71c1.58,0.52,3.6,1.33,4.29,3.22c0.38,1.46,1.45,2.54,1.08,4.3c-6.74,3.34-14.79,2-22.55,1.61
				c-3.79-1.09-8.49,0.26-11.28-3.22c6.82-3.1,13.26-10.48,20.94-11.81C1019.48,239.47,1023.64,240.01,1024.88,242.71
				L1024.88,242.71z M1062.47,282.44c1.57,0.39,3.05,1.19,4.29,2.68c0.64,1.46-1.1,1.46-1.61,2.15
				c-16.14,0.79-32.78-2.97-49.94-1.61c2.12-4.04,7.62-2.84,10.21-6.98c3.73,0.39,5.87-3.23,9.66-2.68
				c6.14-3.24,13.4-5.38,19.87-1.61C1058.27,277.19,1060.42,278.67,1062.47,282.44L1062.47,282.44z M992.66,277.61
				c0.51,1.46-0.83,2.27-1.61,3.22c-5.93,1.46-9.82,7.9-16.64,6.98c-10.09-1.76-16.54,5.22-26.31,4.3
				c-0.29-1.76-2.44-1.49-1.62-3.76c8.04-9.82,21.19-9.82,32.76-12.35C983.64,276.52,988.87,275.58,992.66,277.61L992.66,277.61z
				 M1029.17,310.9c15.27-1.23,33.53-0.15,49.94,1.07c7.75,1.06,14.6,2.26,23.09,3.22c1.97,2.66-0.04,5.75,2.15,8.59l-2.68,1.61
				c-46.07-5.93-94.26-7-142.29-3.22c-5.79,3.2-12.11-0.02-17.18,4.83c-1.77-2.03-1.23-5.12-0.54-8.05
				c10.85-4.05,22.8-7.13,34.37-8.05c16.48-3.64,31.92,0.11,49.4-1.08L1029.17,310.9L1029.17,310.9z"/>
			<path class="st2" d="M1493.66,332.46c0.27-1.22,0.34-2.43,0.29-3.63h0.04c-0.25-5.09-2.9-9.93-2.96-14.57
				c-5.94,10.28-19.99,6.81-29.44,9.1c-11.3,4.26-20.53-3.09-31.05-3.75c-5.54-3.63-12.5-3.49-18.2-6.42
				c-4.34-2.16-13.43,0.52-12.85-6.43c1.83-2.02,1.83-5.9,1.07-8.03c2.23-1.49-0.18-4.97,2.14-6.42
				c11.33,0.12,25.38-0.02,35.87,5.35c7.84-1.09,18.01,1.86,25.69,1.61v-1.07c-3-2.82-1.12-6.44-1.61-10.7
				c-2.99-4.43-8.61-4.7-13.38-5.89c-2.33-3.5-6.47-2.29-9.1-4.82c-12.63-0.55-22.4-3.63-35.32-3.21l-1.61-1.61
				c-0.85-1.62-0.32-4.57,1.07-6.42c16.4-2.82,31.79,3.2,48.71,2.68c1.95,1.46,4.9,2.12,5.88-1.07l-2.14-2.68
				c0.89-0.95,0.35-2.56,0.54-3.75c-10.62-13.8-31.9-9.25-48.18-10.17l-4.28-1.61c-0.59-2.55-1.39-4.56,0-6.96
				c6.51-2.55,16.94-2.02,22.48-0.54c3.16-4.29,4.77,3.6,8.03,1.07c6.51,2.8,14.27,1.06,22.48,1.6c2.89-1.08-1.39-3.63,1.6-4.28
				c-3.93-3.23-8.34-5.37-11.78-9.64c-1.11-3.36-0.59-5.9,1.61-8.03c0.89-2.69,4.23-3.76,6.42-3.21c6.37,4.54,13.46,2.4,21.41,3.21
				c0.48-0.68,1.42-1.21,1.07-2.14c-1.12-0.15-1.8-1.48-2.68-2.14c-2.07-9.11-12.77-6.3-18.2-11.78c-2.46-3.49,1.95-5.5,3.21-8.03
				c2.89-2.68,7.44-7.64,7.49-11.24c3.69-2.55-0.32-6.17-0.54-8.56c-5.27-3.35-9.01,3.2-13.38,4.82c-5.27,2.66-7.95-4.42-12.31-5.35
				c-11.82-0.95-22.93-0.41-34.25-0.53c-1.66-4.96-6.87-7.1-9.1-11.78c-6.21-1.88-7.81,6.95-10.7,10.71
				c-14.77-0.27-30.29-4.56-44.96,1.61c-5.54,4.41-15.97,5.74-13.92,15.52c-1.11,1.33-3.52,1.33-4.82,0.54
				c-4.86-12.72-20.78-7.77-28.91-17.13c-6.6-1.61-11.81-6.97-19.27-6.42c-3.25,0.53-5.12,3.07-6.43,5.89
				c-0.57,10.16,1.44,22.34,11.78,26.77c6.39,2.66,14.14,2.66,20.88,4.81c7.72,3.61,15.75,1.73,24.08,3.75
				c2.9,4.54,4.38,10.43,10.71,11.24c6.38-0.95,13.47-0.15,19.27-2.68c10.79,0.39,20.42-7.77,32.11-2.68
				c1.16,1.59,4.24,1.86,3.21,4.82c-2.19,5.88-8.34,4.27-12.84,5.35c-15.97,0.52-32.84,1.99-48.18,7.49
				c-0.31,4.54,3.84,9.22,8.56,11.78c9.59-1.22,19.49-1.76,28.91-3.75c6.91-0.01,14.54-4.83,20.87,0c-0.05,1.32,1.56,4.81-0.54,6.42
				c-7.27,1.99-17.71,2.8-25.16,2.68c-7.94,1.59-14.89,0.79-21.94,4.28c-4.33,0.52-10.61,0.12-8.03,6.42
				c1.29,2.93,3.43,6.68,6.43,8.03c16.54-0.55,30.73-5.1,47.64-6.42c1.29,3.2,1.82,4.67,1.6,8.56c-9.68,4.8-20.78,1.59-31.05,4.82
				c-8.34,1.19-17.04,1.46-24.08,5.89c-8.48,0.12-1.78,8.81-3.75,12.85c-1.78,1.05-3.38,2.66-5.35,3.21
				c-5.66,2.26-12.48,2.79-17.67-0.53c1.03-6.84,10.66-10.19,10.17-17.66c4.64-7.24,0.36-12.19-0.54-19.81
				c-6.86-4.83-17.84-0.02-25.69,0c-1.11-0.28-2.05-1.35-1.61-2.68c5.85-5.77,14.01-10.59,22.48-12.31c3.85-2.42,10-5.37,9.1-11.24
				c-4.99-6.17-11.95-10.18-18.19-14.45c-4.6-4.69-14.76,0.66-17.13-5.89c-4.59,1.6-8.61-1.48-12.31,1.07
				c-5.12,16.05,9.19,24.34,19.27,32.65c-3.12,4.8-6.46,10.42-11.78,13.38c-2.04,1.59-5.52-0.15-6.95,2.68
				c2.77,4.27-0.98,7.21,1.07,11.78c1.7,3.73,6.25,5.2,9.63,7.49c1.3,0.25,3.04-0.68,3.75,1.07c6.52-0.69,10.79-7.11,17.66-6.96
				c3.71,3.87-3.25,5.87-1.6,10.17c-4.99,15.64-22.65,11.62-35.32,16.59c-6.47,1.99-9.27,7.74-10.17,13.92
				c2.44,3.14,2.79,7.17,5.35,9.74h-0.03c0.9,0.9,2.09,1.61,3.74,2.04c5.3,1.42,10.77-0.29,16.31-2.05h0
				c3.79-1.21,7.64-2.46,11.57-2.77c13.07-5.24,31.01-3.9,45.5-1.07c8.33,0.39,16.54,1.96,24.73,3.86h0.05
				c8.31,1.92,16.6,4.15,24.97,5.77c5.71,1.32,12.27,1.45,17.13,3.75c8.12,0.38,13.61,6.94,20.88,9.64
				c3.29,1.72,9.58,2.65,12.84,6.42c5.71-3.23,8.39,6.27,13.92,3.75c6.37,1.59,15.2,3.99,21.41,0c6.51-2.56,13.86-7.52,14.99-14.99
				C1490.13,339.27,1495.48,335.25,1493.66,332.46z M1405.91,196.5c7.98-8.98,22.03-0.41,31.05-5.35c2.63,0.26,7.31-0.81,9.64,2.14
				c1.95,2-1.26,4-2.14,5.89l0.53,0.54c-5.13,4.68-11.83,2.27-18.2,2.14h-19.81C1406,199.57,1405.73,199.17,1405.91,196.5z
				 M1403.23,220.59c3.56-5.5,10.92-0.68,16.06-2.14c5.7-0.68,13.46-1.22,18.19,0.54v4.28c-0.98,1.33-0.19,3.33-2.14,4.28
				l-29.44-0.54C1402.92,226.2,1403.06,223.12,1403.23,220.59z M1388.24,200.78l-1.07,1.07c-11.83,2-22.8-2.02-33.19,1.61
				c-7.81-0.81-14.77,3.6-22.49,4.28c-0.58-0.68-1.64-1.21-1.6-2.14l0.54-0.53c-1.92-1.75-2.85-4.56-1.61-6.96l1.07-1.6
				c8.12-0.01,16.68-2.42,24.62,0c10-3.76,22.98-6.83,32.12-1.61C1387.8,196.09,1388.6,198.5,1388.24,200.78z M1347.57,299.28
				c1.15-3.36,6.25-0.02,8.03-3.21c3.03,0.78,4.78-1.22,6.96-2.68c7.17-1.22,15.74-2.16,24.08-2.14l1.07,3.75
				c-1.79,3.59,1.15,8.41-0.54,12.85c-8.74,0.38-18.51-0.16-26.23-3.75C1355.02,304.47,1352.47,300.86,1347.57,299.28z"/>
			<path class="st2" d="M1799.43,326.93h-0.21c-5.57-8.43-20.38-9.22-29.31-13.15c-8.45-3.76-17.62,3.21-25.31-2.07l-1.55,2.07
				c-0.35,3.97,3.29,9.62,6,13.42h0.18c1.6,2.25,2.82,3.81,2.6,3.92c8.33,4.93,16.08,13.78,26.86,14.07
				c7.82-0.55,12.69,0.71,20.13-2.66c1.88-2.85,3.83-4.4,2.61-6.73C1801.63,332.16,1800.87,329.28,1799.43,326.93z M1699.65,310.68
				l-1.55-3.61c-4.19,3.08-8.71,0.63-12.91,3.61c-11.17-0.4-22.28,2.18-32.04,6.2c-3.54,1.79-7.8-1.7-9.81,2.58
				c-0.2,2.2-0.5,4.82-0.56,7.47h-0.01c0,0.06,0,0.13,0,0.19c0,0.02,0,0.05,0,0.07h0c-0.03,4.98,0.9,10.03,5.21,12.77
				c7.69,1.15,15.06,1.68,22.73,0c7.04-3.93,15.44-4.06,21.18-9.38c2.04-0.75,3.28-1.97,4.27-3.38h0.21
				c1.69-2.46,2.68-5.4,5.85-7.23C1703.21,315.7,1698.3,315.06,1699.65,310.68z M1845.34,290.02c-0.33-2.86-2.27-5.7-2.58-7.75
				l-3.1-3.62c-1.88,1.28-2.01,3.47-4.65,2.58c-5.37-3.5-11.44-1.95-17.05-3.1c-6.66,3.86-20.99,3.34-20.66,2.07
				c-3.5-0.32-2.25,0.3-6.2-0.52c-15.05,0.11-30.55-4.79-44.95-4.13c-5.23,0.11-12.07,0.37-15.5-4.13c-1.1-0.92-0.45-2.85,0.52-3.1
				h-0.52c-0.45-4.15-8.46-8.93-1.04-12.4c8.08-5.95,4.85,6.06,9.3,7.75c4.46-0.79,9.62,1.54,14.46,0
				c4.59,0.12,9.88,1.92,13.96,0.52c3.81,0.5,8.58,3.21,12.91,2.58c7.17-1.44,15.04,0.37,21.7,0.52c0.83-3.37,0.32-5.57,0.52-9.3
				c-0.33-1.31-1.36-3.76-3.1-3.1c-0.2-3.24-5.36-3.24-4.14-6.72c0.58-2.73-5.49-4.92-1.03-6.72c1.9-4.83,7.48-7.29,11.58-10.7h0.02
				c3.26-2.7,5.58-5.98,4.41-11.51c0.06-3.24-6.14-3.63-3.1-6.72c8.07,1.8,9.36-8.92,13.95-13.43c-1.11-2.72-0.46-6.21,0.52-8.78
				c-3.69-10.47-16.6-7.89-25.32-8.27c-3.68-2.85-7.3-1.04-11.89-1.55c-2.52-0.01-3.29-3.11-2.58-4.65
				c-0.32-6.08-7.43-5.95-11.37-5.68c-3.03,0.38-2.65,2.58-2.58,5.17c-7.43,6.19-19.3,3.09-27.9,4.65
				c-3.41,2.45-8.45,0.89-11.88,2.07c0.58,1.03,0.71,2.32,1.03,3.62c8.6,7.1,0.07,18.59,7.24,25.32c3.04,1.28,1.88-2.21,3.61-3.1
				c4.98-5.18,12.08-9.44,20.67-8.27c1.1,1.28,4.33,1.41,3.1,4.13c0.84,0.9,0.19,2.96,2.06,3.1c0.58,2.32,1.1,4.12-0.52,6.2
				c-13.88-1.69-27.05,2.96-40.3,2.58c0.58,1.93,1.1,5.15-0.52,6.72c0.84,3.48,1.88,6.19,5.16,8.27c0.01,0.04,0.02,0.08,0.02,0.13h0
				c0.41,3.3-0.62,6.34-2.6,8.13c1.62,6.44-3.03,10.97-2.06,16.53c-5.36,3.09-6.39,8.38-9.81,12.92c-1.74,1.4,0.2,4.76-2.59,5.16
				c-14.91,0.5-31.31,3.34-46.49,1.55c-11.17,4.76-24.08,3.47-35.14,5.16c-5.35-2.21-8.45,4.12-13.43,4.13
				c-4.83,0.11-4.83,4.63-6.71,7.75c1.23,3.22-2.9,6.57,1.55,8.79c-0.82,3.08,1.37,5.92,1.55,9.3c18.41,5.53,35.33-5.06,52.69-8.78
				c6.92,1.01,13.12-4.15,20.15-3.1c7.43-5.7,15.18-2.08,23.76-3.1c2.01,2.18,3.04,4.76,4.66,7.23c-0.09,7.54-1.25,16.04-1.73,24.53
				h-0.02c-0.61,11.31,0,22.63,5.88,31.78c3.04,0.63,2.26-3.15,4.65-4.17c1.36-4.84,3.63-6.33,5.17-18.23
				c-0.38-3.29-0.51-6.37-0.56-9.4h0c-0.08-6.73,0.28-13.29-0.47-21.41c0,0,1.74-8.02,3.62-9.29c5.49-1.44,12.33,0.11,18.08,1.55
				c3.94,2.7,12.91,2.58,12.91,2.58c17.5,0.11,29.25,9.41,45.98,11.89c5.54,2.8,3.97,1.86,6.72,2.58
				c9.88,1.14,20.72-0.67,26.35-10.85c1.68-2.12,1.22-2.47,2.06-3.62C1842.95,296.85,1846.43,293.62,1845.34,290.02z
				 M1775.08,205.81c0.71,0.25,0.97-0.66,1.55-1.03c-1.22-1.3,0.97-2.59,1.04-4.13c2.39-1.56,5.75,0.89,7.75-1.03
				c6.65,1.8,12.2-1.82,17.05,3.62c0.45,3.09-1.36,7.09,1.55,9.3c-10.27,5.93-23.44,1.93-33.06,0.52
				C1768.56,209.67,1773.98,207.86,1775.08,205.81z M1745.63,236.29c7.04-3.63,13.37,0.63,20.67-2.58c6.39,0.12,9.36-0.4,15.5,0.52
				c1.62,4.12-2.78,5.67-3.62,8.78c-12.85,2.19-24.86-0.27-37.71,3.1C1741.56,242.61,1745.7,239.25,1745.63,236.29z M1627.32,194.44
				c2.39,2.57-0.71,5.41,2.58,7.75c-2.9,2.7,0.07,5.67-1.55,9.3c4.73,4.51,8.21-1.82,11.88-1.55c2.14-2.98,6.79-5.05,6.71-8.78
				c2.02-5.56,9.89-2.47,13.44-2.58c9.5-4.27,3.17,8.9,7.23,12.4c-5.35,3.6-12.98,0.38-18.6,3.62c-3.03,4.9-7.94,0.64-11.37,4.13
				l0.52,0.52c0.07,1.02-0.19,1.93-1.04,2.58c0.87,3.09,1.34,6.14,2.45,8.91h0.01c1.11,2.76,2.87,5.22,6.33,7.1
				c10.4,2.18,20.87-3.5,30.48-5.17c2.26,0.76,5.49,2.18,5.68,5.17c-8.2,6.83-20.34,3.86-29.96,6.71c-4.07,4.64-8.58,3.6-13.44,6.2
				c2.14,6.83-3.28,18.32,7.24,19.63c8.34,2.18,15.7,0.63,23.24-2.58c10.02-6.08,22.67-2.99,33.07-6.72
				c3.3-4.66,9.88-1.56,13.95-4.65c-0.45-3.24-5.61-5.18-3.62-8.78c-1.09-0.02-2.38,0.12-3.09-0.52c-3.81-6.47-11.04-2.08-15.5-7.75
				c-0.57-2.98,1.37-5.44,3.62-6.72c6.38-0.82,13.32-0.3,19.45-1.91h0.1c0.73-0.19,1.44-0.41,2.14-0.67c3.3-4.92-1.48-5.05-3.1-8.78
				c-1.99-1.05-2.39-4.4-5.68-3.1c-9.62-4.66-21.23-7.5-32.03-5.68c-3.16-1.95,1.49-3.11,0-5.68c2.01-3.24,2.14-5.43,4.14-8.78
				c5.1-1.56,11.82-3.11,17.04-1.55c3.04,2.06-1.61,3.48,0,6.2c-2.9,1.15-0.71,4.25-0.52,6.2c2.91,1.41,5.75-0.4,8.78-0.52
				c2.65-2.59,5.88-2.98,8.78-6.2c2.9-3.75,5.1-9.57,3.1-13.43c0.97-5.05-5.61-4.4-6.2-8.78c-6.52-1.82-12.2-5.3-19.63-4.65
				c-9.62,2.58-12.58-10.86-22.73-8.27c-1.74,2.45-2.65,5.8-5.68,7.23c-8.84,0.9-17.24,0.51-26.35,2.07
				c-4.7,4.13-10.9-0.14-15.5,4.13c-1.34,3.35-0.18,6.45,2.06,8.78C1623.91,192.37,1629.08,191.33,1627.32,194.44z"/>
			<path class="st0" d="M682.72,175.52c0.39,4.11,2.12,8.5,6.38,10.11c17.94-0.41,36.83,0.12,53.73,3.72
				c10.62-1.47,23.66,7.57,34.05,0.53c4.24,0.26,9.96-2.27,11.17,3.72c4.37,6.77,1.44,12.49,0,19.68c-5.21,2.52-7.33,9.17-8.51,14.9
				c-4.81,2.65-5.47,8.77-7.98,13.3c-3.74,5.71-5.21,12.36-10.11,17.56c6.1,6.37,6.23,15.15,7.45,24.47
				c-3.61,9.3-14.38,4.51-21.81,4.79c-5.87-1.48-12.38-1.48-18.62-2.13l-2.13,1.06c-7.99-2.94-15.97,3.71-22.88-1.6
				c-4.4-1.88-11.58-2.68-11.71-9.04c-2.27-6.53-2.14-14.11-0.53-20.22c2.65,0.65,5.71,3.71,8.51,1.06
				c1.98-2.14,5.57-0.28,7.98-1.59c7.7-1.48,16.48,0.92,23.94-2.66c3.58,0.78,8.9,3.18,11.71,0c3.58-7.99,1.58-16.37,7.45-23.41
				c-1.48-2.67,0.92-4.93-2.13-6.92c-6.27-2.81-12.38-0.94-18.62-3.72c-5.2,0.65-13.05,1.45-17.56-2.66
				c-10.79,1.85-23.42-5.06-29.26,7.98c-5.33,8.5-0.94,20.87-2.66,29.79c0.79,3.31-2.4,6.9-0.53,10.64
				c1.45,11.95-5.2,25.12-0.53,37.77c-0.01,19.67,2.38,38.29,0,56.93c-2.27,5.3-5.46,10.22-11.71,11.17
				c-3.07-0.42-6.39-0.95-7.98-3.72c-4.13-15.71-3.34-32.61-2.66-48.94c1.98-25.29,3.58-53.08,2.13-78.21
				c2.65-4.53-0.54-10.12,0-14.37c-1.47-4.13-4.8-6.93-9.04-7.45c-11.05-2.27-18.76,3.58-28.2,5.32c-2.4,3.58-7.06,3.84-10.64,5.85
				c-2.67,5.04-7.85,9.7-7.45,15.43c-0.67,3.98-8.12,7.57-3.72,11.17c11.7-1.21,22.74-8.92,35.11-3.73
				c4.91,1.45,7.97,5.57,11.17,10.11c4.11,5.57,3.58,13.82,0.53,19.69c-13.18,9.56-32.59,3.97-47.35,4.79
				c-4.53-0.42-5.86-10.52-11.17-3.72c-2.53,4.5-7.05,6.23-11.7,6.92c-2.8-2.94-2.27-8-4.26-11.71c-0.8-10.26,3.19-17.84,4.79-27.67
				c-0.54-4.67,3.45-9.99,0.53-14.9c-7.18-7.73-20.75-13.84-20.22-26.6c-2.66-5.6-3.59-12.38-1.6-18.09
				c5.18-2,11.97-0.14,16.49-3.72c9.17-1.87,20.74-1.34,30.32-3.72c17.68-3.2,35.24,6.77,52.14-2.66c6.24,0.79,2.38-6.26,4.25-9.04
				c3.85-5.99,9.03-11.84,13.83-17.02C680.45,159.55,677.52,169.39,682.72,175.52L682.72,175.52z"/>
		</g>
		<g>
			<path class="st0" d="M559.9,436.46c0-21.96,14.13-34.83,30.96-34.83c8.46,0,15.21,4.06,19.53,8.55l-7.01,8.46
				c-3.33-3.24-7.2-5.58-12.24-5.58c-10.08,0-17.64,8.63-17.64,22.95c0,14.48,6.84,23.21,17.37,23.21c5.67,0,10.17-2.69,13.77-6.57
				l7.02,8.28c-5.49,6.4-12.6,9.81-21.24,9.81C573.58,470.75,559.9,458.69,559.9,436.46z"/>
			<path class="st0" d="M620.58,402.9h13.32v26.19h25.19V402.9h13.23v66.59H659.1v-28.8H633.9v28.8h-13.32V402.9z"/>
			<path class="st0" d="M686.94,402.9h13.32v66.59h-13.32V402.9z"/>
			<path class="st0" d="M714.86,402.9h13.59l19.35,35.46l6.66,14.39h0.45c-0.72-6.92-1.71-15.75-1.71-23.3V402.9h12.6v66.59h-13.5
				l-19.26-35.64l-6.75-14.3h-0.45c0.63,7.2,1.62,15.57,1.62,23.21v26.73h-12.6V402.9z"/>
			<path class="st0" d="M811.73,452.39h-21.6l-4.68,17.1h-13.5l21.33-66.59h15.66l21.42,66.59h-13.95L811.73,452.39z M808.85,442.04
				l-1.98-7.29c-2.07-6.92-3.87-14.58-5.85-21.77h-0.36c-1.71,7.29-3.69,14.85-5.67,21.77l-1.98,7.29H808.85z"/>
			<path class="st0" d="M869.29,461.03l7.65-9.18c4.77,4.41,11.07,7.38,16.92,7.38c6.93,0,10.62-2.97,10.62-7.64
				c0-4.95-4.05-6.48-9.99-9l-8.91-3.79c-6.75-2.78-13.5-8.19-13.5-17.91c0-10.89,9.54-19.26,23.04-19.26
				c7.74,0,15.48,3.07,20.88,8.55l-6.75,8.37c-4.23-3.51-8.64-5.49-14.13-5.49c-5.85,0-9.63,2.6-9.63,7.01
				c0,4.77,4.77,6.48,10.44,8.73l8.73,3.69c8.1,3.33,13.41,8.46,13.41,18.09c0,10.89-9.09,20.15-24.48,20.15
				C884.67,470.75,875.76,467.24,869.29,461.03z"/>
			<path class="st0" d="M939.24,413.96h-18.72V402.9h50.93v11.06h-18.9v55.53h-13.32V413.96z"/>
			<path class="st0" d="M1007.66,452.39h-21.6l-4.68,17.1h-13.5l21.34-66.59h15.65l21.42,66.59h-13.95L1007.66,452.39z
				 M1004.79,442.04l-1.98-7.29c-2.06-6.92-3.87-14.58-5.85-21.77h-0.35c-1.71,7.29-3.69,14.85-5.68,21.77l-1.97,7.29H1004.79z"/>
			<path class="st0" d="M1038.65,413.96h-18.72V402.9h50.93v11.06h-18.9v55.53h-13.32V413.96z"/>
			<path class="st0" d="M1079.89,402.9h40.85v11.06h-27.53v15.4h23.39v11.15h-23.39v17.83h28.52v11.15h-41.85V402.9z"/>
			<path class="st0" d="M1167.42,436.46c0-21.96,14.13-34.83,30.95-34.83c8.46,0,15.21,4.06,19.54,8.55l-7.02,8.46
				c-3.33-3.24-7.2-5.58-12.24-5.58c-10.08,0-17.63,8.63-17.63,22.95c0,14.48,6.83,23.21,17.36,23.21c5.68,0,10.17-2.69,13.78-6.57
				l7.01,8.28c-5.49,6.4-12.59,9.81-21.24,9.81C1181.1,470.75,1167.42,458.69,1167.42,436.46z"/>
			<path class="st0" d="M1221.26,435.93c0-21.69,12.15-34.29,29.79-34.29c17.63,0,29.79,12.69,29.79,34.29s-12.16,34.82-29.79,34.82
				C1233.41,470.75,1221.26,457.53,1221.26,435.93z M1267.25,435.93c0-14.31-6.3-22.86-16.2-22.86s-16.2,8.54-16.2,22.86
				c0,14.22,6.3,23.3,16.2,23.3S1267.25,450.15,1267.25,435.93z"/>
			<path class="st0" d="M1292.13,402.9h13.59l19.34,35.46l6.66,14.39h0.45c-0.72-6.92-1.71-15.75-1.71-23.3V402.9h12.6v66.59h-13.49
				l-19.26-35.64l-6.75-14.3h-0.45c0.63,7.2,1.62,15.57,1.62,23.21v26.73h-12.6V402.9z"/>
			<path class="st0" d="M1353.36,461.03l7.65-9.18c4.77,4.41,11.07,7.38,16.92,7.38c6.92,0,10.62-2.97,10.62-7.64
				c0-4.95-4.05-6.48-9.99-9l-8.91-3.79c-6.75-2.78-13.5-8.19-13.5-17.91c0-10.89,9.54-19.26,23.04-19.26
				c7.74,0,15.48,3.07,20.88,8.55l-6.75,8.37c-4.23-3.51-8.64-5.49-14.13-5.49c-5.85,0-9.63,2.6-9.63,7.01
				c0,4.77,4.77,6.48,10.44,8.73l8.73,3.69c8.11,3.33,13.41,8.46,13.41,18.09c0,10.89-9.09,20.15-24.48,20.15
				C1368.75,470.75,1359.84,467.24,1353.36,461.03z"/>
			<path class="st0" d="M1423.32,413.96h-18.72V402.9h50.93v11.06h-18.9v55.53h-13.32V413.96z"/>
			<path class="st0" d="M1500.83,469.49l-13.68-25.19h-9.27v25.19h-13.32V402.9h23.22c13.95,0,25.01,4.86,25.01,20.15
				c0,9.99-5.03,16.21-12.68,19.17l15.57,27.27H1500.83z M1477.88,433.76h8.63c8.55,0,13.23-3.59,13.23-10.71
				c0-7.2-4.68-9.63-13.23-9.63h-8.63V433.76z"/>
			<path class="st0" d="M1523.8,439.52V402.9h13.32v37.8c0,13.86,4.78,18.53,12.6,18.53c7.92,0,12.96-4.68,12.96-18.53v-37.8h12.78
				v36.62c0,22.15-9.45,31.23-25.74,31.23C1533.53,470.75,1523.8,461.67,1523.8,439.52z"/>
			<path class="st0" d="M1586.39,436.46c0-21.96,14.13-34.83,30.95-34.83c8.46,0,15.21,4.06,19.54,8.55l-7.02,8.46
				c-3.33-3.24-7.2-5.58-12.24-5.58c-10.08,0-17.63,8.63-17.63,22.95c0,14.48,6.83,23.21,17.36,23.21c5.68,0,10.17-2.69,13.78-6.57
				l7.01,8.28c-5.49,6.4-12.59,9.81-21.24,9.81C1600.06,470.75,1586.39,458.69,1586.39,436.46z"/>
			<path class="st0" d="M1658.87,413.96h-18.72V402.9h50.93v11.06h-18.9v55.53h-13.32V413.96z"/>
			<path class="st0" d="M1700.12,402.9h13.32v66.59h-13.32V402.9z"/>
			<path class="st0" d="M1724.7,435.93c0-21.69,12.15-34.29,29.79-34.29c17.63,0,29.79,12.69,29.79,34.29s-12.16,34.82-29.79,34.82
				C1736.85,470.75,1724.7,457.53,1724.7,435.93z M1770.68,435.93c0-14.31-6.3-22.86-16.2-22.86c-9.9,0-16.2,8.54-16.2,22.86
				c0,14.22,6.3,23.3,16.2,23.3C1764.39,459.23,1770.68,450.15,1770.68,435.93z"/>
			<path class="st0" d="M1795.57,402.9h13.59l19.34,35.46l6.66,14.39h0.45c-0.72-6.92-1.71-15.75-1.71-23.3V402.9h12.6v66.59h-13.49
				l-19.26-35.64l-6.75-14.3h-0.45c0.63,7.2,1.62,15.57,1.62,23.21v26.73h-12.6V402.9z"/>
		</g>
	</g>
</g>
</svg>
