<?xml version="1.0" encoding="UTF-8"?>
<svg width="240px" height="240px" viewBox="0 0 240 240" version="1.1" xmlns="http://www.w3.org/2000/svg" xmlns:xlink="http://www.w3.org/1999/xlink">
    <title>其他</title>
    <g id="页面-1" stroke="none" stroke-width="1" fill="none" fill-rule="evenodd">
        <g id="其他" fill="#FFFFFF">
            <path d="M120,0 C186.27417,0 240,53.72583 240,120 C240,186.27417 186.27417,240 120,240 C53.72583,240 0,186.27417 0,120 C0,53.72583 53.72583,0 120,0 Z M66.0058655,101 C55.5122809,101 47,109.509694 47,120.000089 C47,130.490484 55.5122809,139 66.0058655,139 C76.4994501,139 85.0115527,130.490484 85.0115527,120.000089 C85.0115527,109.509694 76.4994501,101 66.0058655,101 Z M120.000446,101 C109.506148,101 100.99458,109.509694 100.99458,120.000089 C100.99458,130.490484 109.506148,139 120.000446,139 C130.493852,139 139.00542,130.490484 139.00542,120.000089 C139.00542,109.509694 130.493852,101 120.000446,101 Z M173.994313,101 C163.500728,101 154.98916,109.509694 154.98916,120.000089 C154.98916,130.490484 163.500728,139 173.994313,139 C184.488432,139 193,130.490484 193,120.000089 C193,109.509694 184.488432,101 173.994313,101 Z" id="椭圆形-3"></path>
        </g>
    </g>
</svg>