<?xml version="1.0" encoding="UTF-8"?>
<svg width="240px" height="240px" viewBox="0 0 240 240" version="1.1" xmlns="http://www.w3.org/2000/svg" xmlns:xlink="http://www.w3.org/1999/xlink">
    <title>反馈</title>
    <g id="页面-1" stroke="none" stroke-width="1" fill="none" fill-rule="evenodd">
        <g id="反馈" fill="#FFFFFF">
            <path d="M120,0 C186.27417,0 240,53.72583 240,120 C240,186.27417 186.27417,240 120,240 C53.72583,240 0,186.27417 0,120 C0,53.72583 53.72583,0 120,0 Z M173.600202,63 L66.3997982,63 C59.0307769,63 53.0678001,69.0307769 53.0678001,76.3997982 L53,197 L79.8004036,170.200404 L173.600202,170.200404 C180.969425,170.200404 187,164.170434 187,156.799798 L187,76.3997982 C187,69.0307769 180.969425,63 173.600202,63 Z M127.696035,135.929744 C131.676201,139.919782 131.676201,146.408789 127.696035,150.414254 C123.654955,154.267712 117.313711,154.267712 113.272632,150.414254 C109.293079,146.408789 109.293079,139.905384 113.287758,135.915345 C117.268129,131.90988 123.729972,131.90988 127.696035,135.929744 Z M127.585683,83.2922459 C127.662373,83.3512769 127.723111,83.4242209 127.783849,83.4832519 C129.721747,85.5135598 130.765954,88.1914197 130.675767,90.959913 C130.675767,92.6917709 128.783405,102.077408 127.190352,112.234954 L127.044215,113.174565 C127.020022,113.331466 126.995915,113.488499 126.971903,113.645639 L126.829035,114.589573 C126.734633,115.219455 126.642002,115.850255 126.551654,116.48037 L126.417909,117.424828 C126.000206,120.412715 125.639769,123.367046 125.391335,126.115942 L115.774651,126.115942 C115.544255,123.367046 115.186779,120.412651 114.76227,117.424675 L114.626057,116.480188 C114.603007,116.322655 114.579788,116.165078 114.55641,116.007484 L114.4143,115.061904 L114.4143,115.061904 L114.268784,114.117099 C112.577377,103.260915 110.29369,92.7971918 110.29369,90.959913 C110.218636,88.1930098 111.24771,85.5135598 113.170474,83.4832519 C117.092078,79.5540148 123.55794,79.4653689 127.585683,83.2922459 Z" id="椭圆形-3"></path>
        </g>
    </g>
</svg>