<?xml version="1.0" encoding="UTF-8"?>
<svg width="240px" height="240px" viewBox="0 0 240 240" version="1.1" xmlns="http://www.w3.org/2000/svg" xmlns:xlink="http://www.w3.org/1999/xlink">
    <title>导航</title>
    <g id="页面-1" stroke="none" stroke-width="1" fill="none" fill-rule="evenodd">
        <g id="导航" fill="#FFFFFF">
            <path d="M119.998256,101.633238 C110.201896,101.633238 101.631049,109.591838 101.631049,120.000504 C101.631049,129.79573 109.589477,138.368107 119.998256,138.368107 C130.405353,138.368107 138.365127,130.408162 138.365127,120.000504 C138.365127,110.203934 130.405353,101.633238 119.998256,101.633238 Z" id="Fill-1"></path>
            <path d="M119.998256,0 C53.8764454,0 0,53.8776059 0,120.000504 C0,186.122394 53.8764454,240 119.998256,240 C186.118385,240 239.99483,186.122394 239.99483,120.000504 C240.60725,53.8776059 186.730468,0 119.998256,0 Z M188.165059,59.3957985 L157.528132,152.837493 C156.762419,155.135102 154.46486,157.432711 152.167301,158.19844 L58.7276187,188.836027 C56.4300596,189.602177 53.3667876,189.602177 52.6006541,188.070297 C51.0692284,186.538418 50.3030949,184.239127 51.8349412,181.941939 L82.4701853,88.5002438 C83.2363188,86.2026352 85.533878,83.9050265 87.8314371,83.1392972 L181.270698,52.5029725 C183.568258,51.7372432 186.633633,51.7372432 187.399346,53.2687019 C188.930772,54.8005812 189.696905,57.0981898 188.165059,59.3957985 Z" id="Fill-3"></path>
        </g>
    </g>
</svg>