<?xml version="1.0" encoding="UTF-8"?>
<svg width="240px" height="240px" viewBox="0 0 240 240" version="1.1" xmlns="http://www.w3.org/2000/svg" xmlns:xlink="http://www.w3.org/1999/xlink">
    <title>布局</title>
    <g id="页面-1" stroke="none" stroke-width="1" fill="none" fill-rule="evenodd">
        <g id="布局" fill="#FFFFFF">
            <path d="M120,0 C186.27417,0 240,53.72583 240,120 C240,186.27417 186.27417,240 120,240 C53.72583,240 0,186.27417 0,120 C0,53.72583 53.72583,0 120,0 Z M112.783468,55 L62.2228806,55 C58.2336108,55 55,58.233295 55,62.2221752 L55,62.2221752 L55,177.778036 C55,181.766705 58.2336108,185 62.2228806,185 L62.2228806,185 L112.783468,185 L112.783468,55 Z M185.012697,127.222175 L127.229229,127.222175 L127.229229,185 L177.790028,185 C181.779086,185 185.012697,181.766705 185.012697,177.778036 L185.012697,177.778036 L185.012697,127.222175 Z M177.790028,55 L127.229229,55 L127.229229,112.777825 L185.012697,112.777825 L185.012697,62.2221752 C185.012697,58.233295 181.779086,55 177.790028,55 L177.790028,55 Z" id="椭圆形备份-2"></path>
        </g>
    </g>
</svg>
