<?xml version="1.0" encoding="UTF-8"?>
<svg width="240px" height="240px" viewBox="0 0 240 240" version="1.1" xmlns="http://www.w3.org/2000/svg" xmlns:xlink="http://www.w3.org/1999/xlink">
    <title>数据展示</title>
    <g id="页面-1" stroke="none" stroke-width="1" fill="none" fill-rule="evenodd">
        <g id="数据展示" fill="#FFFFFF">
            <path d="M120,0 C186.27417,0 240,53.72583 240,120 C240,186.27417 186.27417,240 120,240 C53.72583,240 0,186.27417 0,120 C0,53.72583 53.72583,0 120,0 Z M77.9017927,114.779726 L63.0586894,114.779726 C56.6225478,114.779726 51.3815745,119.359401 51.3815745,125.011331 L51.3815745,189 L89.5921555,189 L89.5921555,125.011331 C89.5921555,119.359401 84.3522213,114.779726 77.9017927,114.779726 Z M177.70446,83.0001385 L162.848108,83.0001385 C156.410928,83.0001385 151.157746,87.5807237 151.157746,93.2317432 L151.157746,188.988392 L189.381575,188.988392 L189.381575,93.2317432 C189.381575,87.5807237 184.140601,83.0001385 177.70446,83.0001385 Z M128.534228,51 L113.677877,51 C107.227449,51 102.000762,55.5912827 102.000762,61.2432126 L102.000762,188.976784 L140.198095,188.976784 L140.198095,107.09982 L140.211343,107.09982 L140.211343,61.2432126 C140.211343,55.5912827 134.971409,51 128.534228,51 Z" id="椭圆形-3"></path>
        </g>
    </g>
</svg>