<?xml version="1.0" encoding="UTF-8"?>
<svg width="240px" height="240px" viewBox="0 0 240 240" version="1.1" xmlns="http://www.w3.org/2000/svg" xmlns:xlink="http://www.w3.org/1999/xlink">
    <title>数据录入</title>
    <g id="页面-1" stroke="none" stroke-width="1" fill="none" fill-rule="evenodd">
        <g id="数据录入" transform="translate(-0.000000, 0.000000)" fill="#FFFFFF">
            <path d="M120,0 C186.27417,0 240,53.72583 240,120 C240,186.27417 186.27417,240 120,240 C53.72583,240 0,186.27417 0,120 C0,53.72583 53.72583,0 120,0 Z M174.314902,152.054037 C168.90922,157.367356 164.054501,162.179821 159.750195,166.49088 C157.947995,168.29491 156.146713,170.124876 154.344513,171.979304 C152.543232,173.833733 150.891812,175.513608 149.390254,177.017457 L149.390254,177.017457 L143.68393,182.731569 C142.683198,183.734013 141.882649,184.887099 141.282099,186.190459 C141.081365,186.591437 140.806618,187.342993 140.455654,188.445865 C140.105609,189.548737 139.730404,190.726287 139.330037,191.980169 C138.929854,193.233131 138.579075,194.461079 138.279167,195.663827 C137.978525,196.867311 137.778342,197.768958 137.677883,198.37116 C137.477699,199.573909 137.577886,200.426078 137.978525,200.927483 C138.378891,201.428337 139.179441,201.579164 140.381091,201.378675 C140.98164,201.278063 141.882649,201.077758 143.083564,200.776657 C144.28448,200.476292 145.536268,200.124977 146.837642,199.723999 C148.138282,199.323206 149.41468,198.897029 150.666468,198.445838 C151.917705,197.994646 152.843139,197.618868 153.44424,197.318503 C154.044789,197.017402 154.645155,196.641623 155.245705,196.190432 C155.846071,195.73924 156.397034,195.313248 156.897125,194.91227 C156.997584,194.811658 157.522651,194.26059 158.473981,193.25833 C159.425127,192.255335 160.601065,191.052586 162.002164,189.648614 L162.002164,189.648614 L186.927363,164.68593 Z M134.074401,51 L76.5676387,51 C74.264797,51 72.0631489,51.6264812 69.9612251,52.8796277 C67.858383,54.1325902 65.981803,55.6866536 64.3301996,57.5410822 C62.6787799,59.3962466 61.3774053,61.476363 60.4262595,63.7819832 C59.4756647,66.0876034 59,68.2933471 59,70.3986626 L59,70.3986626 L59,172.806458 C59,175.313119 59.6506873,177.743815 60.9520619,180.099833 C62.2534365,182.455667 63.8796956,184.535784 65.8317575,186.340734 C67.7838193,188.1455 69.8857432,189.598951 72.1377126,190.701823 C74.3904166,191.804143 76.4671798,192.355947 78.369104,192.355947 L78.369104,192.355947 L119.810337,192.355947 L148.93975,161.979332 C147.438192,163.18208 145.585855,163.783546 143.384206,163.783546 L143.384206,163.783546 L87.0776251,163.783546 C84.4756105,163.783546 82.2732278,162.881715 80.4710278,161.076949 C78.6697462,159.272734 77.7685544,157.066991 77.7685544,154.460269 C77.7685544,151.853548 78.6697462,149.623341 80.4710278,147.768361 C82.2732278,145.913748 84.4756105,144.98635 87.0776251,144.98635 L87.0776251,144.98635 L143.384206,144.98635 C145.986956,144.98635 148.213764,145.913748 150.065367,147.768361 C151.917705,149.623341 152.843139,151.853548 152.843139,154.460269 C152.843139,156.365096 152.292727,158.119648 151.191536,159.723374 L151.191536,159.723374 L171.76229,138.369671 L171.76229,88.5945768 L149.840023,88.5945768 C147.037826,88.5945768 144.63526,87.9679116 142.63306,86.7149491 C140.631412,85.4618027 139.004418,83.9077392 137.753181,82.0533106 C136.502128,80.1981462 135.575959,78.1684279 134.975593,75.9626842 C134.375043,73.7576762 134.074401,71.7020231 134.074401,69.7971964 L134.074401,69.7971964 L134.074401,51 Z M187.077408,142.204339 C185.676309,142.054065 184.374935,142.530455 183.173285,143.633327 C182.673194,144.034304 182.047667,144.585373 181.296521,145.287267 C180.546109,145.989345 179.870445,146.590628 179.269895,147.092217 L179.269895,147.092217 L192.032402,159.723374 C192.33231,159.522885 192.683089,159.22252 193.083456,158.821543 C193.383363,158.520626 193.734143,158.144847 194.13451,157.693472 C194.534692,157.24228 194.985197,156.76589 195.486022,156.26522 C196.586479,155.162348 197.087304,154.009078 196.98758,152.806329 C196.887121,151.602845 196.686938,150.600586 196.386295,149.798815 C195.785929,148.394842 194.909898,147.067018 193.759304,145.814056 C192.607791,144.560173 191.53176,143.682989 190.531028,143.182135 C189.629836,142.680546 188.478507,142.355165 187.077408,142.204339 Z M143.384206,107.391773 C145.986956,107.391773 148.213764,108.319355 150.065367,110.173784 C151.917705,112.028948 152.843139,114.259155 152.843139,116.865877 C152.843139,119.472598 151.917705,121.677606 150.065367,123.482372 C148.213764,125.287322 145.986956,126.18897 143.384206,126.18897 L143.384206,126.18897 L87.0776251,126.18897 C84.4756105,126.18897 82.2732278,125.287322 80.4710278,123.482372 C78.6697462,121.677606 77.7685544,119.472598 77.7685544,116.865877 C77.7685544,114.259155 78.6697462,112.028948 80.4710278,110.173784 C82.2732278,108.319355 84.4756105,107.391773 87.0776251,107.391773 L87.0776251,107.391773 Z M143.834711,51 L143.534068,51 L143.534068,69.4962794 C143.534068,70.1981738 143.658953,71.0753579 143.909274,72.1280157 C144.159595,73.1806734 144.534801,74.208132 145.035626,75.2111274 C145.536268,76.2133871 146.161978,77.0907551 146.91239,77.8423119 C147.663352,78.5944204 148.588787,78.9701988 149.690162,78.9701988 L149.690162,78.9701988 L171.76229,78.9701988 L171.76229,76.5639664 C171.76229,75.9626842 171.661831,75.2613416 171.461648,74.4588349 C171.261648,73.657064 170.736397,72.6798195 169.885526,71.5267335 C169.03484,70.3734635 167.808029,68.9702265 166.206746,67.3162865 C164.604913,65.6616109 162.452668,63.6318926 159.750195,61.2256601 C157.247905,59.0199164 155.170223,57.240901 153.518803,55.8871423 C151.867384,54.5335676 150.466285,53.4809099 149.314956,52.7293531 C148.163443,51.9770606 147.187871,51.5015897 146.387138,51.3011009 C145.585855,51.1006122 144.734984,51 143.834711,51 L143.834711,51 Z" id="椭圆形-3"></path>
        </g>
    </g>
</svg>