<?xml version="1.0" encoding="UTF-8"?>
<svg width="240px" height="240px" viewBox="0 0 240 240" version="1.1" xmlns="http://www.w3.org/2000/svg" xmlns:xlink="http://www.w3.org/1999/xlink">
    <title>通用</title>
    <g id="页面-1" stroke="none" stroke-width="1" fill="none" fill-rule="evenodd">
        <g id="通用" fill="#FFFFFF">
            <path d="M120,0 C186.27417,0 240,53.72583 240,120 C240,186.27417 186.27417,240 120,240 C53.72583,240 0,186.27417 0,120 C0,53.72583 53.72583,0 120,0 Z M160.020258,126.899514 L126.899513,126.899514 L126.899513,160.020257 C126.897089,167.707341 129.949929,175.080286 135.385689,180.516249 C140.822461,185.951201 148.196013,189.003232 155.883298,189 L155.883298,189 L160.026525,189 C176.027755,189 189,176.027754 189,160.020257 L189,160.020257 L189,155.880064 C189.002424,148.19298 185.950393,140.820035 180.51443,135.385083 C175.079478,129.94912 167.706533,126.897089 160.020258,126.899514 L160.020258,126.899514 Z M113.099677,126.899515 L79.9797421,126.899515 C72.2942758,126.899515 64.9229476,129.953163 59.4877933,135.388115 C54.0534476,140.822461 51.0000008,148.193789 51.0000008,155.880064 L51.0000008,155.880064 L51.0000008,160.020257 C50.9983843,167.705117 54.0496068,175.076243 59.4839525,180.511397 C64.9174896,185.946551 72.2880092,188.999997 79.9726669,188.999997 L79.9726669,188.999997 L84.1199361,188.999997 C91.8062109,188.999997 99.1767306,185.946551 104.611885,180.511397 C110.047039,175.077052 113.099677,167.705724 113.099677,160.020257 L113.099677,160.020257 L113.099677,126.899515 Z M84.1167017,51 L79.9726669,51 C63.9722454,51 51,63.9722472 51,79.9799457 L51,79.9799457 L51,84.1199374 C50.9975757,91.8072229 54.0496068,99.1791574 59.4847611,104.61512 C64.9205218,110.050274 72.2934672,113.102912 79.9797421,113.099882 L79.9797421,113.099882 L113.099679,113.099882 L113.099679,79.9799457 C113.102911,72.2926603 110.050071,64.9191086 104.613502,59.4839544 C99.1775392,54.0479917 91.8039873,50.9961628 84.1167017,51 L84.1167017,51 Z M160.026525,51.0000036 L155.880064,51.0000036 C148.193789,51.0000036 140.822461,54.0536518 135.388115,59.4879974 C129.952961,64.9229494 126.899515,72.2942775 126.899515,79.9799457 L126.899515,79.9799457 L126.899515,113.09988 L160.020258,113.09988 C167.705724,113.09988 175.077052,110.04704 180.511398,104.611886 C185.94635,99.1769337 188.999999,91.8064143 188.999999,84.1199374 L188.999999,84.1199374 L188.999999,79.9799457 C189.001616,72.2942775 185.949585,64.923758 180.516048,59.488806 C175.08251,54.0536518 167.711991,51.0000036 160.026525,51.0000036 L160.026525,51.0000036 Z" id="椭圆形-2"></path>
        </g>
    </g>
</svg>